<svg xmlns="http://www.w3.org/2000/svg" width="215" height="179" viewBox="0 0 215 179">
    <path fill="#3E94FF" fill-rule="nonzero" d="M0 1.821c31.604-.007 54.458 8.97 72.125 26.445 7.493 7.412 14.064 16.32 20.462 27.333 4.902 8.44 8.656 15.974 16.037 31.656l.747 1.588.749 1.59c14.078 29.888 22.301 44.112 35.381 57.796 17.114 17.906 38.915 28.267 68.456 30.792l.086-.996c-29.3-2.505-50.874-12.758-67.82-30.487-12.98-13.581-21.165-27.738-35.199-57.532l-.748-1.588-.747-1.589c-7.393-15.707-11.156-23.26-16.078-31.732-6.439-11.084-13.06-20.062-20.623-27.542C54.97 9.891 31.862.814 0 .821v1z"/>
</svg>
