<svg xmlns="http://www.w3.org/2000/svg" width="215" height="117" viewBox="0 0 215 117">
    <path fill="#3E94FF" fill-rule="nonzero" d="M0 115.022c31.643.005 54.53-5.83 72.207-17.177 13.478-8.652 21.502-17.616 36.465-38.248l1.495-2.062c14.088-19.41 22.323-28.653 35.415-37.542C162.69 8.376 184.465 1.66 213.972.023l.056.998c-29.335 1.628-50.934 8.29-67.885 19.799-12.97 8.806-21.142 17.98-35.166 37.303-.364.5-.748 1.03-1.496 2.062-15.032 20.727-23.12 29.762-36.734 38.502-17.85 11.457-40.923 17.34-72.747 17.335v-1z"/>
</svg>
