<svg xmlns="http://www.w3.org/2000/svg" width="215" height="212" viewBox="0 0 215 212">
    <path fill="#3E94FF" fill-rule="nonzero" d="M0 210.02c31.586.009 54.428-10.625 72.096-31.336 7.497-8.788 14.072-19.352 20.474-32.41 4.905-10.006 8.66-18.938 16.042-37.525l.747-1.883.748-1.883c14.075-35.41 22.294-52.258 35.366-68.466C162.585 15.3 184.393 3.017 213.95.023l.1.995c-29.285 2.966-50.85 15.113-67.798 36.126-12.989 16.105-21.178 32.89-35.215 68.208l-.748 1.883-.748 1.883c-7.391 18.61-11.153 27.56-16.073 37.596-6.436 13.127-13.053 23.76-20.61 32.62C55 200.265 31.88 211.028 0 211.02v-1z"/>
</svg>
