<svg id="Слой_1" data-name="Слой 1" xmlns="http://www.w3.org/2000/svg" viewBox="0 0 149 149">
  <title>group1</title>
  <path d="M74.5,149h1.36l-0.72-40H74.5v40Zm2.72,0,1.36-.06-2.17-39.94-0.64,0,1.44,40h0Zm2.72-.15,1.36-.11-3.62-39.84-0.63.05Zm2.73-.25L84,148.4l-5.08-39.68-0.63.07Zm2.71-.35,1.35-.21L80.2,108.53l-0.62.1Zm2.71-.45,1.35-.26-8-39.2-0.62.12,7.26,39.34h0Zm2.7-.55,1.34-.31L82.69,108l-0.61.14Zm2.68-.65,1.32-.36L83.91,107.71l-0.61.17Zm2.6-.74,1.31-.41L85.1,107.35l-0.6.19Zm2.61-.84,1.29-.46L86.3,106.94l-0.6.21,13,37.84h0Zm2.59-.94,1.27-.5L87.48,106.48l-0.59.23L101.27,144h0Zm2.55-1,1.25-.55L88.65,106l-0.58.25L103.82,143h0Zm2.51-1.13,1.23-.6L89.79,105.44l-0.57.28,17.1,36.16h0Zm2.47-1.22L110,140,90.92,104.85l-0.56.3Zm2.43-1.32,1.18-.68L92,104.22l-0.55.32,19.74,34.79h0Zm2.29-1.35,1.16-.73L93.08,103.58l-0.54.34Zm2.3-1.48,1.13-.77L94.14,102.87l-0.52.36Zm2.25-1.56,1.1-.81-24-32-0.51.38,23.41,32.43h0Zm2.19-1.64,1.07-.85-25.16-31.1-0.5.4,24.58,31.55h0Zm2.13-1.72,1-.89L97.15,100.53l-0.48.41Zm2.07-1.8,1-.93L98.09,99.67l-0.47.43,26.83,29.67h0Zm2-1.88,1-1L99,98.78l-0.45.45,27.9,28.66h0Zm1.93-1.95,0.93-1L99.89,97.86l-0.43.46,28.93,27.62h0Zm1.86-2,0.9-1-30.4-26-0.42.48Zm1.78-2.08,0.86-1.06L101.55,95.92l-0.4.49L132,121.84h0Zm1.71-2.15,0.82-1.09L102.33,94.9l-0.38.51,31.79,24.28h0Zm1.63-2.21,0.78-1.12L103.06,93.86l-0.36.52Zm1.55-2.28,0.74-1.15L103.76,92.79l-0.34.53Zm1.44-2.3,0.7-1.18-34.64-20-0.32.55,34.26,20.64h0Zm1.35-2.34,0.65-1.2L105,90.62l-0.3.56,35,19.38h0Zm1.24-2.35q0.31-.61.61-1.23l-36-17.46-0.28.57L141,108.21h0Zm1.2-2.47c0.19-.41.38-0.83,0.56-1.25L106.1,88.37l-0.26.58,36.31,16.78h0Zm1.1-2.51q0.26-.63.52-1.27L106.59,87.21l-0.24.58,36.9,15.43h0Zm1-2.55q0.24-.64.47-1.29L107,86l-0.22.59Zm0.92-2.59q0.22-.65.42-1.3L107.43,84.83l-0.19.6,37.95,12.65h0ZM146,95.46c0.13-.44.25-0.88,0.37-1.32L107.79,83.61l-0.17.61L146,95.45h0Zm0.72-2.65q0.17-.66.32-1.33l-39-9.09-0.15.61,38.78,9.81h0Zm0.63-2.68q0.14-.67.27-1.34l-39.26-7.64c0,0.21-.08.41-0.13,0.62Zm0.52-2.7q0.12-.67.22-1.35L108.58,79.9q0,0.31-.1.62l39.4,6.91h0Zm0.43-2.71q0.09-.68.17-1.36l-39.72-4.72-0.08.63ZM148.63,82q0.07-.68.12-1.36l-39.87-3.26q0,0.31-.06.63l39.8,4h0Zm0.22-2.73q0-.68.07-1.36l-40-1.8q0,0.32,0,.64ZM149,76.53q0-.68,0-1.36l-40-.35q0,0.32,0,.64Zm0-2.73q0-.68,0-1.36l-40,1.09c0,0.21,0,.43,0,0.64l40-.37h0Zm-0.07-2.73q0-.68-0.07-1.36l-39.92,2.54c0,0.21,0,.42,0,0.64l40-1.82h0Zm-0.17-2.72q-0.06-.68-0.12-1.36l-39.8,4q0,0.31.06,0.63Zm-0.27-2.72q-0.08-.68-0.17-1.35l-39.63,5.45q0,0.31.08,0.63l39.72-4.72h0Zm-0.37-2.71c-0.07-.45-0.15-0.9-0.22-1.35l-39.4,6.91c0,0.21.07,0.42,0.1,0.62Zm-0.48-2.71q-0.13-.67-0.27-1.34l-39.12,8.36c0,0.21.09,0.41,0.13,0.62l39.26-7.64h0Zm-0.57-2.69q-0.16-.67-0.32-1.33L107.95,66l0.15,0.61Zm-0.67-2.64q-0.18-.66-0.37-1.32L107.62,64.79l0.17,0.61,38.59-10.51h0Zm-0.77-2.64c-0.14-.43-0.28-0.87-0.42-1.3L107.24,63.59l0.19,0.6,38.18-11.94h0Zm-0.87-2.61q-0.23-.65-0.47-1.29l-37.46,14L107,63l37.71-13.35h0Zm-1-2.58q-0.25-.64-0.52-1.27L106.36,61.22l0.24,0.58,37.19-14.74h0Zm-1.06-2.54-0.56-1.25L105.85,60.06l0.26,0.57,36.62-16.11h0ZM141.57,42L141,40.8,105.29,58.91l0.28,0.57,36-17.45h0Zm-1.25-2.46-0.65-1.2-35,19.42,0.3,0.56ZM139,37.2L138.3,36,104.06,56.7l0.32,0.54Zm-1.4-2.31-0.74-1.15L103.4,55.64l0.34,0.53Zm-1.5-2.29-0.78-1.12L102.68,54.59,103,55.11,136.1,32.59h0Zm-1.58-2.23-0.82-1.09-31.77,24.3,0.38,0.51,32.21-23.72h0Zm-1.66-2.17L132,27.12,101.14,52.57l0.4,0.49,31.32-24.88h0Zm-1.74-2.12-0.9-1L100.31,51.6l0.42,0.48Zm-1.82-2-0.93-1L99.44,50.67l0.43,0.46L129.29,24h0Zm-1.89-2-1-1L98.55,49.76,99,50.21Zm-2-1.92-1-.92L97.61,48.89l0.47,0.43,27.35-29.19h0Zm-2-1.84-1-.89L96.65,48l0.48,0.41,26.26-30.17h0Zm-2.1-1.76-1.07-.85L95.66,47.24l0.5,0.39,25.13-31.12h0Zm-2.17-1.69L118,14,94.63,46.48l0.51,0.38,24-32h0Zm-2.23-1.61-1.13-.77L93.59,45.75l0.52,0.36ZM114.6,11.7L113.44,11,92.51,45.06,93,45.4,114.6,11.7h0Zm-2.31-1.42L111.1,9.6,91.43,44.43,92,44.74l20.31-34.46h0ZM109.93,9l-1.21-.64L90.33,43.83l0.56,0.3Zm-2.36-1.22-1.23-.6L89.23,43.29l0.57,0.28L107.57,7.73h0Zm-2.48-1.17L103.84,6,88.08,42.77,88.65,43Zm-2.52-1.08L101.29,5,86.9,42.29l0.59,0.23,15.07-37h0Zm-2.56-1L98.71,4l-13,37.83,0.59,0.21L100,4.49h0Zm-2.6-.89-1.31-.41L84.51,41.47l0.6,0.19Zm-2.63-.8-1.32-.36L83.3,41.13l0.61,0.17Zm-2.66-.7-1.34-.31-8.71,39L82.68,41Zm-2.68-.6-1.34-.26L80.83,40.57l0.62,0.12,8-39.19h0ZM86.73,1l-1.35-.21-5.8,39.58,0.62,0.1L86.73,1h0ZM84,0.6l-1.36-.16L78.31,40.21l0.63,0.07Zm-2.72-.3L79.93,0.2,77,40.09l0.63,0.05Zm-2.74-.2L77.19,0,75.76,40l0.64,0ZM75.82,0H74.45l0,40h0.64ZM73.09,0l-1.36,0L73.2,40l0.64,0Zm-2.72.1L69,0.2l2.92,39.89,0.64,0L70.37,0.11h0Zm-2.72.2-1.36.14,4.37,39.76,0.63-.06Zm-2.72.3-1.36.19,5.83,39.57L70,40.29,64.93,0.61h0ZM62.22,1l-1.35.24,7.29,39.33,0.62-.11L62.22,1h0Zm-2.71.5-1.34.29,8.74,39,0.62-.13-8-39.19h0Zm-2.69.6-1.33.34L65.68,41.13,66.29,41ZM54.2,2.8l-1.31.38L64.48,41.47l0.6-.18L54.2,2.8h0Zm-2.63.8L50.27,4l13,37.83,0.6-.2L51.57,3.6h0ZM49,4.49L47.69,5l14.4,37.32,0.59-.22L49,4.49h0Zm-2.57,1L45.14,6,60.91,42.77l0.58-.24L46.4,5.49h0ZM43.87,6.57l-1.24.58L59.76,43.29,60.33,43,43.87,6.57h0ZM41.39,7.75l-1.22.62L58.62,43.86l0.56-.29L41.39,7.75h0ZM38.94,9l-1.19.66L57.5,44.47l0.55-.31L38.94,9h0Zm-2.36,1.34-1.17.71,21,34L57,44.78Zm-2.3,1.42-1.14.75L55.37,45.78l0.53-.35L34.29,11.78h0ZM32,13.3l-1.11.79L54.33,46.51l0.52-.37L32,13.3h0ZM29.79,14.9l-1.08.83,24.6,31.54,0.5-.39-24-32h0Zm-2.16,1.68-1.05.87L52.32,48.07l0.49-.4L27.63,16.59h0Zm-2.1,1.76-1,.91L51.36,48.91l0.47-.42L25.53,18.35h0Zm-2,1.84-1,.94L50.43,49.79l0.46-.44Zm-2,1.91-1,1L49.53,50.69,50,50.24,21.54,22.1h0Zm-1.9,2-0.91,1L48.67,51.63l0.43-.47L19.64,24.09h0Zm-1.82,2.05-0.88,1L47.84,52.6l0.41-.49Zm-1.75,2.12-0.84,1.08L47,53.6l0.39-.5L16.08,28.27h0Zm-1.67,2.18-0.8,1.11L46.29,54.63l0.37-.51L14.41,30.45h0ZM12.82,32.7l-0.76,1.14,33.5,21.85,0.35-.53L12.82,32.7h0ZM11.32,35l-0.71,1.17,34.29,20.6,0.33-.54L11.32,35h0Zm-1.4,2.32L9.25,38.52l35,19.34,0.31-.55-34.65-20h0ZM8.64,39.66L8,40.87,43.69,58.95,44,58.39Zm-1.22,2.4c-0.2.41-.39,0.82-0.59,1.24L43.15,60.07l0.27-.57-36-17.43h0ZM6.27,44.56q-0.28.63-.54,1.26L42.64,61.23l0.25-.58L6.27,44.56h0ZM5.21,47.1q-0.25.64-.49,1.28l37.46,14,0.23-.59L5.21,47.1h0Zm-1,2.57c-0.15.43-.3,0.86-0.44,1.3l38,12.63L42,63,4.25,49.67h0ZM3.38,52.27q-0.2.65-.4,1.31L41.38,64.8l0.18-.6L3.38,52.27h0ZM2.61,54.91q-0.18.66-.35,1.32L41,66l0.16-.61L2.61,54.91h0ZM1.94,57.58q-0.15.67-.3,1.34l39.12,8.34,0.14-.62ZM1.36,60.27q-0.13.67-.25,1.35l39.4,6.89q0.05-.31.11-0.62L1.36,60.27h0ZM0.89,63c-0.07.45-.14,0.9-0.2,1.35l39.63,5.43,0.09-.63L0.89,63h0ZM0.52,65.69Q0.44,66.37.37,67l39.8,4c0-.21,0-0.42.07-0.63L0.52,65.69h0ZM0.25,68.42q-0.06.68-.1,1.36l39.92,2.51q0-.32,0-0.63L0.25,68.42h0ZM0.07,71.15q0,0.68,0,1.36l40,1.05c0-.21,0-0.43,0-0.64l-40-1.78h0ZM0,73.89q0,0.68,0,1.36l40-.4q0-.32,0-0.64Zm0,2.72Q0,77.29.08,78l40-1.84q0-.32,0-0.64L0,76.61H0Zm0.13,2.73c0,0.45.06,0.9,0.1,1.36L40.12,77.4c0-.21,0-0.42,0-0.63Zm0.22,2.72q0.07,0.68.15,1.36l39.72-4.75c0-.21,0-0.42-0.07-0.63Zm0.33,2.72q0.09,0.68.2,1.36l39.52-6.21q0-.31-0.09-0.63L0.71,84.77h0Zm0.42,2.71q0.12,0.67.25,1.35l39.26-7.66c0-.21-0.08-0.41-0.11-0.62Zm0.53,2.71q0.14,0.67.3,1.34l38.95-9.11-0.14-.62Zm0.63,2.68q0.17,0.66.35,1.32L41.22,83.64,41.06,83,2.29,92.87h0ZM3,95.48c0.13,0.44.26,0.87,0.4,1.31l38.17-12-0.18-.6L3,95.48H3ZM3.82,98.1q0.22,0.65.44,1.3L42,86l-0.21-.6L3.82,98.1h0Zm0.92,2.59Q5,101.33,5.23,102L42.41,87.22l-0.23-.59Zm1,2.56q0.26,0.63.54,1.26L42.9,88.39l-0.25-.58L5.76,103.25h0Zm1.11,2.52q0.29,0.62.59,1.24l36-17.47L43.17,89Zm1.2,2.48,0.63,1.21L44,90.67l-0.29-.56L8.07,108.25h0Zm1.29,2.43q0.33,0.6.68,1.19L44.63,91.78l-0.31-.55ZM10.7,113l0.72,1.16L45.27,92.84l-0.33-.54L10.7,113h0Zm1.46,2.32,0.76,1.14L46,93.9l-0.35-.53L12.16,115.31h0Zm1.54,2.26,0.8,1.11L46.7,94.94l-0.37-.51L13.71,117.57h0Zm1.63,2.21,0.84,1.08L47.48,96l-0.39-.5Zm1.7,2.14,0.88,1,30.37-26-0.41-.49ZM18.82,124l0.92,1,29.4-27.12-0.43-.47L18.82,124h0Zm1.86,2,1,1L50,98.81l-0.44-.45ZM22.61,128l1,0.94L50.93,99.7l-0.46-.44L22.61,128h0Zm2,1.88,1,0.9,26.24-30.19-0.47-.42Zm2.07,1.8,1.06,0.87,25.12-31.13-0.49-.4Zm2.14,1.73,1.09,0.83,24-32-0.5-.38L28.83,133.36h0ZM31,135l1.12,0.79L54.91,102.9l-0.52-.37L31,135h0Zm2.26,1.57,1.14,0.75L56,103.61l-0.53-.35L33.29,136.57h0Zm2.32,1.48,1.17,0.7,20.27-34.48-0.54-.33-20.9,34.1h0ZM38,139.43l1.2,0.66,19-35.2-0.55-.3L38,139.43h0Zm2.3,1.24,1.22,0.62,17.75-35.85-0.56-.29Zm2.46,1.22L44,142.46,60.37,106l-0.57-.26L42.71,141.89h0Zm2.5,1.13,1.26,0.53,15.05-37.06-0.58-.24Zm2.54,1L49,144.53l13.67-37.59-0.59-.22ZM50.34,145l1.3,0.43L63.9,107.35l-0.6-.2ZM53,145.83l1.32,0.38,10.85-38.5-0.61-.18Zm2.64,0.75,1.33,0.33L66.34,108l-0.61-.15Zm2.67,0.65,1.34,0.29,8-39.2L67,108.18Zm2.7,0.55L62.31,148l6.51-39.47-0.62-.11Zm2.71,0.45L65,148.4l5-39.68-0.63-.09-5.78,39.58h0Zm2.72,0.35,1.36,0.13,3.59-39.84-0.63-.06L66.4,148.56h0Zm2.73,0.24,1.36,0.09,2.13-39.94-0.64,0ZM71.86,149l1.36,0,0.68-40-0.64,0Z"/>
</svg>
